<svg id="visual" viewBox="0 0 900 600" width="900" height="600" xmlns="http://www.w3.org/2000/svg" xmlns:xlink="http://www.w3.org/1999/xlink" version="1.1"><rect x="0" y="0" width="900" height="600" fill="#002233"></rect><path d="M0 276L30 276.7C60 277.3 120 278.7 180 259C240 239.3 300 198.7 360 183.5C420 168.3 480 178.7 540 175.5C600 172.3 660 155.7 720 161.7C780 167.7 840 196.3 870 210.7L900 225L900 0L870 0C840 0 780 0 720 0C660 0 600 0 540 0C480 0 420 0 360 0C300 0 240 0 180 0C120 0 60 0 30 0L0 0Z" fill="#0066FF" stroke-linecap="round" stroke-linejoin="miter"></path></svg>